<?xml version="1.0" standalone="no"?>
<!DOCTYPE svg PUBLIC "-//W3C//DTD SVG 20010904//EN"
 "http://www.w3.org/TR/2001/REC-SVG-20010904/DTD/svg10.dtd">
<svg version="1.0" xmlns="http://www.w3.org/2000/svg"
 width="1043.000000pt" height="841.000000pt" viewBox="0 0 1043.000000 841.000000"
 preserveAspectRatio="xMidYMid meet">

<g transform="translate(0.000000,841.000000) scale(0.100000,-0.100000)"
fill="#000000" stroke="none">
<path d="M5223 7398 c-17 -12 -41 -39 -54 -60 -20 -32 -30 -38 -69 -43 -25 -3
-57 -13 -72 -21 -14 -8 -37 -14 -50 -14 -12 -1 -40 -7 -60 -14 -32 -12 -39
-11 -50 1 -15 18 -68 46 -75 39 -3 -2 10 -18 29 -35 48 -44 12 -41 -56 4 -54
36 -80 43 -91 25 -3 -5 0 -10 9 -10 8 0 16 -4 18 -8 2 -4 22 -23 46 -42 41
-33 55 -60 29 -60 -8 0 -24 12 -38 26 -13 14 -43 37 -67 51 -23 14 -46 32 -52
41 -8 14 -9 14 -10 2 0 -8 16 -35 35 -58 35 -45 48 -72 43 -90 -2 -6 6 -18 17
-26 30 -23 5 -34 -70 -29 -34 2 -91 -1 -126 -7 -78 -14 -80 -14 -101 -6 -11 5
-16 2 -15 -10 2 -13 -9 -20 -35 -27 -28 -7 -38 -14 -38 -29 0 -15 -5 -19 -20
-15 -23 6 -26 -10 -6 -32 22 -25 4 -45 -39 -44 -35 1 -36 0 -30 -30 4 -18 9
-40 11 -49 4 -12 -3 -19 -23 -24 -15 -4 -47 -27 -70 -51 -27 -27 -52 -43 -67
-43 -13 0 -29 -7 -36 -15 -11 -13 -10 -14 6 -8 18 7 18 6 3 -17 -9 -14 -25
-26 -37 -28 -14 -2 -18 -9 -15 -23 4 -13 0 -19 -10 -19 -9 0 -21 -8 -26 -19
-6 -10 -42 -35 -81 -55 -39 -21 -74 -45 -78 -54 -8 -22 -28 -42 -41 -42 -6 0
-11 -5 -11 -11 0 -6 -13 -26 -30 -45 -38 -44 -95 -234 -69 -234 6 0 6 -6 -1
-19 -13 -25 -13 -64 0 -77 6 -6 14 -43 17 -82 3 -40 10 -72 15 -72 5 0 9 -30
9 -67 0 -84 4 -133 12 -153 18 -48 27 -87 27 -114 0 -17 7 -52 16 -77 14 -37
25 -50 53 -62 20 -9 44 -30 54 -47 16 -27 17 -31 2 -36 -9 -4 -23 1 -33 9 -28
25 -64 35 -98 25 -42 -11 -61 -60 -76 -193 -11 -93 -10 -117 11 -246 25 -155
42 -230 65 -281 14 -31 15 -31 11 -6 -5 36 7 42 29 17 9 -11 25 -19 34 -17 30
6 25 47 -12 101 -46 68 -80 199 -70 271 10 75 39 171 60 203 l19 28 5 -65 c4
-44 2 -68 -6 -75 -27 -22 -54 -82 -54 -120 0 -44 48 -155 82 -192 23 -25 60
-31 57 -10 -5 41 1 48 38 45 26 -2 37 -8 39 -22 1 -10 17 -34 35 -52 18 -19
29 -37 25 -41 -4 -4 -20 8 -36 27 -21 25 -32 32 -40 24 -13 -13 0 -52 25 -77
19 -19 80 -23 91 -5 4 6 -1 17 -11 25 -11 7 -15 13 -11 13 4 0 -6 24 -23 54
-26 45 -30 58 -21 81 5 14 10 37 10 51 0 13 9 40 19 60 13 24 18 47 14 70 -3
21 -1 34 5 34 15 0 35 -67 27 -88 -16 -37 -16 -181 -1 -233 11 -36 13 -56 6
-64 -6 -7 -9 -38 -6 -68 3 -49 0 -60 -19 -79 -20 -20 -38 -30 -115 -67 -19 -9
-78 -3 -103 11 -13 7 -17 7 -13 0 9 -15 112 -52 144 -52 15 0 48 8 74 17 26 9
49 15 52 12 2 -2 6 -17 9 -34 3 -16 14 -58 26 -91 12 -34 26 -95 31 -135 5
-41 16 -114 24 -163 8 -49 19 -162 23 -250 5 -113 9 -145 13 -106 4 40 7 49
13 35 4 -11 14 -31 22 -45 18 -31 20 -97 3 -103 -9 -3 -7 -10 7 -21 13 -10 15
-15 6 -16 -9 0 -10 -4 -4 -12 5 -7 20 -41 32 -75 16 -43 27 -60 37 -56 19 7
19 -41 -1 -57 -8 -7 -15 -20 -15 -29 0 -14 2 -14 10 -1 8 13 11 12 24 -5 9
-11 16 -29 16 -40 0 -12 5 -26 12 -33 9 -9 9 -12 0 -12 -21 0 -13 -26 11 -37
l22 -10 -22 -7 c-36 -11 -28 -29 9 -22 25 5 30 4 20 -6 -17 -17 -15 -41 3 -34
9 3 15 0 15 -9 0 -8 12 -18 27 -21 22 -6 24 -8 10 -13 -15 -6 -14 -10 11 -37
16 -17 35 -34 43 -37 12 -5 12 -7 0 -15 -11 -8 -10 -11 5 -15 13 -3 11 -5 -8
-6 -16 0 -28 4 -28 9 0 6 -9 10 -19 10 -11 0 -23 5 -26 10 -10 16 -65 41 -75
35 -17 -10 2 -35 26 -35 17 0 22 -4 18 -15 -4 -8 -1 -22 6 -30 10 -12 9 -15
-6 -15 -14 -1 -11 -5 11 -16 l30 -14 -27 5 c-18 3 -28 1 -28 -6 0 -7 -3 -9 -7
-5 -5 4 -8 12 -8 17 0 9 -11 10 -33 2 -7 -3 -20 1 -30 10 -13 11 -23 12 -42 4
-22 -9 -23 -11 -6 -15 23 -5 46 -26 46 -42 0 -7 -6 -10 -14 -7 -24 9 -27 -6
-4 -17 31 -16 35 -37 6 -34 -12 2 -26 8 -30 13 -5 7 -14 6 -27 -2 -15 -10 -21
-10 -24 0 -3 7 -6 4 -6 -6 -1 -11 13 -32 30 -48 17 -16 26 -29 20 -29 -6 0
-11 -4 -11 -8 0 -5 13 -8 29 -7 20 1 28 -2 24 -11 -8 -21 -83 -4 -83 20 0 6
-14 24 -30 40 -17 16 -30 40 -30 52 0 34 -19 39 -30 9 -10 -25 -5 -32 67 -102
43 -42 73 -73 67 -69 -7 3 -15 -1 -18 -10 -3 -9 -15 -14 -28 -12 -11 2 -23 -3
-25 -9 -3 -8 4 -13 15 -13 11 0 23 -7 26 -16 3 -9 11 -12 18 -8 8 5 9 2 5 -9
-5 -14 0 -17 28 -17 38 0 43 6 21 24 -8 6 -17 22 -21 36 -7 21 -2 19 41 -19
27 -24 61 -49 75 -57 20 -10 28 -23 31 -49 4 -36 -13 -45 -18 -9 -2 10 -16 31
-33 46 -26 23 -33 25 -54 15 -14 -6 -22 -17 -20 -24 4 -9 0 -11 -13 -7 -11 4
-16 4 -12 -1 4 -4 18 -8 30 -9 20 -1 23 -6 23 -42 0 -27 4 -40 11 -37 7 2 18
-3 25 -12 8 -9 36 -39 62 -67 32 -33 47 -57 44 -69 -5 -17 20 -36 31 -24 3 3
-1 5 -8 5 -7 0 -11 3 -7 6 12 12 167 -49 167 -66 0 -5 10 -12 23 -15 28 -9 84
-62 101 -97 12 -23 12 -26 -2 -20 -14 5 -14 4 -2 -9 15 -17 50 -23 50 -8 0 5
7 9 16 9 8 0 12 -4 9 -10 -4 -6 22 -9 72 -8 43 1 61 3 41 5 -21 2 -38 7 -39
11 -5 43 -4 54 3 58 5 3 8 2 7 -3 -4 -21 3 -28 31 -30 17 -1 28 2 25 6 -5 10
34 27 83 35 19 3 32 1 32 -5 0 -6 5 -7 10 -4 6 4 8 10 5 15 -6 10 50 40 74 40
14 0 14 2 1 10 -13 8 -12 10 5 11 11 1 23 1 27 0 4 0 10 8 13 19 5 16 15 20
51 20 31 0 50 6 65 21 13 13 27 18 40 14 13 -4 39 2 67 16 26 12 54 25 62 29
18 7 50 2 50 -10 0 -4 7 -11 16 -14 13 -5 14 -3 6 7 -8 10 -6 16 8 25 17 10
18 9 13 -6 -6 -15 -5 -15 10 -3 9 7 14 17 11 22 -3 5 1 6 9 4 7 -3 42 24 83
67 200 209 259 418 174 616 -27 62 -56 75 -34 15 17 -50 17 -99 -1 -159 -8
-27 -15 -62 -15 -79 l1 -30 19 24 c11 13 20 33 20 45 0 16 2 18 9 7 5 -8 7
-21 4 -30 -11 -35 -47 -101 -55 -101 -4 0 -8 -6 -8 -13 0 -7 -9 -18 -20 -25
-17 -10 -20 -10 -20 4 0 9 9 27 20 41 21 28 26 53 10 53 -5 0 -10 -7 -10 -15
0 -7 -6 -18 -12 -22 -7 -4 -22 -26 -33 -47 -11 -22 -28 -41 -37 -44 -10 -2
-18 -11 -18 -19 0 -17 -58 -78 -67 -70 -4 5 73 112 120 166 6 8 19 35 28 60 9
26 20 54 24 65 7 15 5 17 -13 11 -19 -5 -22 -2 -22 20 0 18 -7 28 -26 35 -20
8 -24 13 -15 24 14 16 4 26 -25 26 -26 0 -26 20 -1 47 9 10 19 37 23 60 3 23
11 41 17 40 7 -1 13 9 15 23 2 14 8 30 13 37 7 7 5 13 -3 16 -9 4 -9 8 -3 14
6 4 11 22 12 38 2 47 10 95 16 101 3 3 3 21 0 40 -4 22 -2 34 6 34 6 0 11 -6
12 -12 1 -7 7 25 14 72 19 118 27 136 69 150 25 8 36 18 36 31 0 21 30 27 30
7 1 -10 40 88 40 99 0 2 9 3 19 3 23 0 37 16 19 22 -19 7 1 28 27 28 28 0 34
8 40 52 2 17 11 36 20 40 8 5 15 15 15 23 0 9 8 14 21 12 12 -1 24 4 26 11 3
6 -2 12 -11 12 -10 0 -13 6 -10 15 4 8 9 13 13 11 3 -2 15 2 25 10 17 12 18
18 9 48 -9 28 -8 34 3 29 8 -3 14 1 14 11 0 28 1 31 17 48 9 10 17 36 19 59 1
23 7 46 13 52 6 6 11 19 11 29 0 10 4 18 9 18 11 0 41 83 48 131 5 37 -23 100
-36 81 -11 -16 -38 -21 -51 -9 -10 9 -14 9 -17 0 -3 -7 -13 -13 -24 -13 -10 0
-19 -4 -19 -10 0 -5 -8 -10 -19 -10 -14 0 -20 10 -25 42 -5 30 -18 53 -43 79
-61 61 -78 159 -30 174 22 6 22 6 2 15 -11 5 -33 9 -48 9 -66 2 -168 34 -224
70 -45 29 -66 51 -91 97 -24 43 -31 51 -26 29 12 -58 16 -65 61 -102 50 -41
66 -72 57 -109 -5 -20 -12 -24 -45 -24 -35 0 -120 -18 -161 -35 -11 -5 -18 0
-24 17 -7 22 -7 22 -15 3 -6 -16 -8 -17 -8 -3 -1 12 -16 20 -58 28 -32 6 -68
13 -80 15 -12 3 -23 -1 -25 -7 -3 -9 -28 -5 -92 16 -64 21 -100 27 -133 23
-32 -3 -46 -1 -50 9 -11 30 19 71 82 113 36 23 65 46 65 50 0 4 25 45 56 91
60 91 95 155 113 211 14 42 35 64 72 73 21 4 30 1 41 -17 13 -19 83 -179 102
-231 3 -10 9 -16 12 -13 4 3 -3 37 -14 74 -11 37 -23 95 -27 127 -9 80 -26
103 -80 112 -69 10 -96 -9 -123 -86 -46 -134 -56 -155 -113 -240 -68 -102
-123 -155 -176 -169 -21 -6 -83 -14 -139 -17 -90 -6 -101 -9 -97 -24 3 -11
-11 -33 -36 -59 -22 -23 -48 -55 -56 -71 -9 -17 -27 -33 -41 -36 -14 -4 -45
-21 -69 -39 -23 -18 -52 -36 -63 -39 -17 -6 -20 -13 -16 -36 5 -23 -1 -35 -31
-67 -20 -21 -34 -30 -31 -21 2 9 -5 32 -17 50 -35 51 -58 105 -52 120 9 22
-41 45 -65 30 -14 -9 -19 -8 -24 4 -5 14 -56 39 -66 32 -3 -2 -5 -16 -5 -32 0
-48 -20 -40 -35 14 -7 27 -19 50 -26 50 -14 0 -24 45 -24 110 0 44 -4 51 -42
84 -24 20 -37 36 -30 36 6 0 12 7 12 16 0 14 -3 14 -15 4 -12 -10 -15 -10 -15
0 0 7 8 19 18 26 16 12 16 15 -1 45 -13 24 -15 35 -6 45 6 8 8 14 5 14 -4 0
-2 9 4 20 8 16 6 28 -12 60 -22 40 -22 41 -4 55 10 7 15 18 11 24 -3 6 1 21 9
33 9 12 16 37 16 54 0 25 7 37 33 53 l32 22 -30 -7 c-16 -4 -60 -19 -97 -35
-54 -24 -81 -29 -142 -29 -60 0 -76 3 -76 15 0 26 54 66 160 118 l106 51 -2
78 c-1 62 2 78 14 83 10 4 23 -3 33 -16 16 -22 17 -22 24 30 4 30 18 69 30 87
24 35 70 163 62 171 -3 2 -14 -6 -26 -18 -30 -32 -28 -2 2 42 35 52 57 100 57
124 0 36 153 185 190 185 5 0 29 11 54 24 37 20 52 23 83 16 21 -5 43 -17 50
-26 7 -10 13 -13 13 -7 0 7 35 11 98 11 166 1 286 17 334 43 19 9 48 2 48 -12
0 -5 8 -9 18 -8 10 0 12 3 5 6 -24 9 -13 25 12 19 17 -4 36 1 62 18 28 18 58
26 113 31 41 4 98 15 125 24 38 14 84 18 190 19 77 1 146 -2 153 -6 20 -13
160 -214 172 -247 8 -23 8 -27 -2 -17 -18 18 -68 16 -68 -3 0 -8 5 -15 11 -15
7 0 9 -9 5 -24 -5 -19 2 -31 33 -57 21 -19 61 -46 89 -61 61 -33 116 -103 132
-168 19 -76 39 -213 44 -296 3 -43 5 -82 5 -85 1 -9 50 -29 71 -29 14 0 19 10
23 48 8 70 11 120 10 190 0 61 0 62 26 62 15 0 33 -6 40 -12 9 -9 8 -2 -3 19
-9 17 -20 35 -26 38 -5 3 -10 14 -10 24 0 10 -7 24 -15 31 -12 10 -13 15 -4
21 7 4 21 -2 33 -12 13 -12 22 -16 24 -9 2 6 -4 18 -14 26 -14 11 -15 17 -6
20 6 3 12 14 12 25 0 13 -5 17 -17 12 -16 -6 -16 -5 -4 10 7 9 20 17 27 17 8
0 14 9 14 20 0 13 -7 20 -20 20 -23 0 -25 17 -5 44 16 21 21 96 7 96 -7 0 -34
56 -36 75 -1 5 19 9 44 7 33 -1 40 1 25 7 -35 15 -60 50 -47 63 7 7 12 21 12
32 0 16 -3 17 -12 8 -7 -7 -21 -12 -31 -12 -13 0 -17 -5 -13 -15 6 -17 -9 -21
-19 -5 -3 6 -15 10 -26 10 -11 0 -31 7 -45 16 -21 14 -24 22 -18 48 3 17 10
35 14 39 4 5 34 -5 65 -22 32 -17 61 -29 63 -26 9 8 -11 24 -69 54 l-54 28 2
66 c0 41 -3 66 -9 64 -6 -1 -15 11 -21 28 -6 16 -30 58 -54 92 -23 34 -43 66
-43 72 0 5 -6 14 -13 18 -8 4 -22 21 -33 38 -10 16 -35 45 -55 65 -19 19 -41
53 -48 75 -7 22 -25 52 -38 67 -14 14 -29 41 -34 60 -8 29 -8 28 -4 -12 2 -25
1 -60 -3 -79 l-7 -34 -29 44 c-42 63 -133 156 -160 163 -12 3 -32 24 -45 46
-12 22 -27 40 -33 40 -6 0 -6 -6 2 -15 21 -26 5 -27 -56 -5 -32 11 -76 20 -97
20 -41 0 -77 14 -77 30 0 16 128 12 161 -6 42 -21 49 -10 7 13 -24 13 -56 18
-118 18 -76 1 -93 5 -155 35 -90 44 -165 50 -212 18z m191 -31 c41 -23 65 -57
30 -42 -11 4 -28 10 -39 13 -18 5 -18 4 -6 -12 8 -9 12 -18 10 -20 -2 -2 -30
0 -61 5 -36 6 -66 5 -83 -1 -29 -11 -85 -14 -85 -4 0 16 35 62 58 77 36 22
122 14 176 -16z m247 -100 c19 -8 55 -22 82 -31 32 -12 52 -27 62 -47 9 -16
11 -29 6 -29 -13 0 -81 38 -102 56 -8 8 -22 14 -30 14 -9 0 -24 7 -35 15 -10
8 -27 15 -36 15 -24 0 -23 20 1 20 10 0 34 -6 52 -13z m229 -145 c0 -6 7 -12
15 -16 15 -5 21 -26 8 -26 -24 0 -88 81 -75 94 7 7 52 -38 52 -52z m-799 2
c12 -14 11 -16 -5 -13 -11 2 -21 10 -24 17 -5 17 13 15 29 -4z m-551 -84 c-25
-4 -49 -4 -54 1 -6 5 12 8 45 8 l54 -2 -45 -7z m1548 -3 c15 -18 26 -67 15
-67 -8 0 -43 62 -43 75 0 10 18 5 28 -8z m32 -169 c0 -6 -7 -5 -15 2 -8 7 -15
17 -15 22 0 6 7 5 15 -2 8 -7 15 -17 15 -22z m48 -73 c14 -31 16 -115 3 -115
-9 0 -31 84 -31 120 0 28 15 25 28 -5z m120 -156 c2 -37 -1 -75 -7 -85 -8 -16
-11 -10 -12 31 -2 67 -6 104 -14 140 l-7 30 18 -25 c12 -17 20 -48 22 -91z
m-157 4 c-9 -15 -10 -13 -11 12 0 17 4 41 8 55 6 23 7 21 10 -12 2 -21 -1 -46
-7 -55z m99 -9 c0 -6 -7 -17 -15 -24 -13 -10 -15 -9 -15 11 0 13 -2 42 -5 64
l-5 40 20 -40 c11 -22 20 -45 20 -51z m-50 8 c0 -16 -7 -37 -15 -48 -14 -18
-15 -16 -9 21 10 61 24 77 24 27z m183 -52 c3 -11 1 -18 -4 -14 -5 3 -9 12 -9
20 0 20 7 17 13 -6z m-113 -47 c0 -19 -4 -24 -16 -19 -9 3 -20 6 -26 6 -5 0
-2 7 6 16 9 8 16 20 16 25 0 6 5 7 10 4 6 -3 10 -18 10 -32z m69 -99 c-9 -11
-15 -12 -23 -4 -8 8 -6 15 9 26 23 17 34 2 14 -22z m41 -24 c0 -11 -7 -20 -15
-20 -15 0 -21 21 -8 33 12 13 23 7 23 -13z m-2065 -500 c-4 -12 -9 -19 -12
-17 -3 3 -2 15 2 27 4 12 9 19 12 17 3 -3 2 -15 -2 -27z m35 -7 c0 -22 -17
-50 -25 -42 -5 6 14 59 22 59 1 0 3 -8 3 -17z m-350 -662 c0 -6 11 -22 25 -37
28 -30 33 -49 11 -41 -8 3 -16 1 -18 -4 -2 -6 -15 1 -29 15 -19 18 -25 33 -21
51 4 23 32 37 32 16z m70 -127 c0 -14 -6 -24 -14 -24 -19 0 -26 21 -14 43 12
23 28 12 28 -19z m-112 -4 c12 -11 25 -20 30 -20 10 0 22 -47 22 -82 0 -32
-17 -11 -29 36 -11 46 -25 64 -36 46 -3 -5 -15 -10 -26 -10 -33 0 -23 44 12
49 3 1 15 -8 27 -19z m224 -102 c-7 -7 -12 -8 -12 -2 0 6 3 14 7 17 3 4 9 5
12 2 2 -3 -1 -11 -7 -17z m-175 -50 c-3 -8 -6 -5 -6 6 -1 11 2 17 5 13 3 -3 4
-12 1 -19z m-86 -111 c-8 -8 -11 -7 -11 4 0 20 13 34 18 19 3 -7 -1 -17 -7
-23z m1254 -188 c4 -12 2 -26 -4 -32 -8 -8 -11 -7 -11 5 0 9 -10 24 -22 32
l-22 16 26 0 c18 0 29 -7 33 -21z m1122 -231 c-3 -8 -6 -5 -6 6 -1 11 2 17 5
13 3 -3 4 -12 1 -19z m-1060 -78 c12 -24 13 -25 13 -2 0 25 27 30 63 11 21
-12 140 -31 187 -31 14 0 40 4 58 8 20 4 42 2 56 -5 17 -10 28 -9 50 3 37 19
52 12 60 -27 l7 -32 16 30 c16 29 16 29 26 8 15 -33 4 -47 -49 -63 -28 -8 -40
-16 -29 -17 140 -15 132 -12 127 -39 -2 -13 -1 -24 2 -24 11 0 50 22 56 31 3
4 15 -3 27 -17 12 -13 17 -24 12 -24 -6 0 -3 -10 5 -22 21 -29 20 -48 -4 -78
-11 -14 -20 -33 -20 -42 0 -10 -4 -18 -10 -18 -6 0 -9 -3 -8 -7 4 -16 -27 -83
-38 -83 -19 0 -28 -21 -14 -30 9 -6 6 -12 -13 -24 -15 -11 -23 -23 -20 -34 3
-11 -6 -23 -26 -35 -17 -10 -31 -25 -31 -33 0 -11 -10 -13 -45 -10 -43 4 -45
3 -45 -21 l0 -26 -24 22 c-15 14 -26 19 -31 12 -3 -6 -15 -11 -26 -11 -11 0
-22 -7 -25 -15 -4 -8 -12 -15 -19 -15 -8 0 -21 -7 -29 -16 -18 -18 -38 -10
-35 14 1 10 1 26 0 37 -2 19 -2 19 -12 2 -7 -12 -17 -16 -30 -12 -11 4 -19 2
-19 -5 0 -6 -10 -8 -26 -4 -17 4 -29 2 -34 -6 -6 -9 -14 -6 -30 13 -19 22 -26
24 -43 15 -18 -9 -19 -8 -15 16 6 28 -6 35 -19 13 -12 -21 -63 -31 -63 -13 0
8 6 17 13 20 6 3 1 5 -13 4 -43 -3 -70 11 -70 37 0 34 -18 41 -26 10 -6 -23
-10 -25 -50 -21 -45 3 -74 16 -37 16 30 0 34 11 11 30 l-22 17 22 14 c28 18
28 31 -3 67 -13 16 -22 32 -18 36 3 3 1 6 -7 6 -10 0 -10 3 0 15 7 8 9 15 6
15 -4 0 -2 9 4 20 9 17 7 22 -15 30 -15 6 -25 17 -25 30 0 11 -4 20 -10 20 -5
0 -10 11 -10 24 0 14 -10 32 -22 40 -12 9 -17 16 -10 16 7 0 12 14 12 35 0 29
4 35 21 35 12 0 27 -7 33 -16 16 -21 49 -7 43 18 -5 18 -3 18 31 -3 87 -53
143 -80 155 -76 7 3 0 9 -15 15 -26 11 -48 39 -48 62 0 12 41 10 88 -5 13 -4
22 -3 22 3 0 5 -10 12 -23 16 -13 3 -34 15 -47 26 -13 11 -29 20 -37 20 -7 0
-13 10 -13 23 l0 22 20 -25 c20 -27 18 -28 35 26 8 24 57 14 72 -16z m-493 5
c3 -8 1 -15 -3 -15 -5 0 -11 7 -15 15 -3 8 -1 15 3 15 5 0 11 -7 15 -15z m-54
-15 c0 -5 -7 -10 -16 -10 -8 0 -12 5 -9 10 3 6 10 10 16 10 5 0 9 -4 9 -10z
m1150 -520 c0 -5 -7 -7 -15 -4 -8 4 -15 8 -15 10 0 2 7 4 15 4 8 0 15 -4 15
-10z m-1593 -52 c-3 -8 -6 -5 -6 6 -1 11 2 17 5 13 3 -3 4 -12 1 -19z m190
-510 c-3 -8 -6 -5 -6 6 -1 11 2 17 5 13 3 -3 4 -12 1 -19z m283 -150 c15 -16
17 -24 8 -30 -9 -5 -16 1 -22 17 -13 33 -21 32 -21 -2 0 -39 11 -52 38 -46 21
4 22 4 3 -11 -11 -9 -26 -16 -34 -16 -7 0 -10 -4 -7 -10 3 -5 15 -10 25 -10
14 0 18 -5 13 -16 -5 -13 -2 -15 17 -9 15 5 20 4 16 -4 -4 -6 0 -11 11 -12 10
0 13 -3 6 -6 -7 -2 -13 -13 -13 -24 0 -28 -36 -24 -66 6 -14 14 -29 23 -34 20
-14 -9 -82 23 -75 35 4 7 12 7 25 0 30 -16 35 -12 46 36 10 41 9 49 -8 66 -23
23 -18 33 21 36 20 1 37 -5 51 -20z m-110 -18 c0 -5 -2 -10 -4 -10 -3 0 -8 5
-11 10 -3 6 -1 10 4 10 6 0 11 -4 11 -10z m163 -211 c14 -1 9 -4 -13 -9 -19
-5 -37 -7 -39 -4 -2 2 1 4 7 4 7 0 12 8 13 18 0 10 3 12 6 5 2 -7 14 -13 26
-14z m667 -3 c0 -3 -4 -8 -10 -11 -5 -3 -10 -1 -10 4 0 6 5 11 10 11 6 0 10
-2 10 -4z m-975 -46 c3 -5 1 -10 -4 -10 -6 0 -11 5 -11 10 0 6 2 10 4 10 3 0
8 -4 11 -10z m345 -10 c0 -5 -5 -10 -11 -10 -5 0 -7 5 -4 10 3 6 8 10 11 10 2
0 4 -4 4 -10z m870 -269 c0 -18 -6 -31 -16 -35 -23 -9 -23 -6 -8 32 17 40 24
41 24 3z m-126 -83 c-2 -7 -21 -21 -42 -30 -38 -18 -70 -39 -103 -70 -11 -10
-30 -18 -42 -18 -13 0 -32 -9 -42 -20 -10 -11 -23 -20 -28 -20 -6 0 -40 -17
-76 -39 -36 -21 -90 -46 -118 -55 -29 -10 -55 -22 -58 -27 -8 -12 -25 -12 -25
0 0 5 24 21 54 36 30 15 57 33 60 40 3 8 15 19 28 26 23 12 23 12 4 -10 -31
-35 -10 -36 33 -1 23 17 69 45 103 61 35 17 72 35 83 41 11 7 29 16 40 22 11
6 34 21 52 33 24 18 59 36 80 42 1 1 0 -5 -3 -11z m-1005 -44 c8 -16 19 -32
25 -36 6 -4 7 -10 3 -14 -10 -10 -40 23 -55 59 -17 40 8 32 27 -9z m238 -141
c25 -16 52 -38 61 -51 14 -21 13 -22 -11 -22 -14 0 -29 5 -32 11 -4 5 -18 14
-31 19 -16 6 -22 14 -18 25 5 13 2 15 -18 10 -16 -4 -29 -1 -37 9 -8 9 -20 16
-27 16 -17 0 -18 17 -1 23 19 6 64 -9 114 -40z m221 -85 c-17 -26 -113 -66
-105 -44 3 7 -4 21 -15 30 -11 10 -17 20 -13 24 4 4 12 -1 19 -11 17 -23 54
-22 91 3 38 25 41 25 23 -2z"/>
<path d="M5215 4300 c-13 -21 17 -38 80 -45 36 -3 67 -10 70 -15 6 -10 126
-28 177 -26 30 1 35 3 25 14 -8 7 -53 15 -110 19 -68 4 -97 10 -97 19 0 9 -16
11 -60 7 -50 -5 -60 -3 -60 10 0 20 -16 31 -25 17z"/>
<path d="M5599 4238 c-10 -18 -9 -20 6 -15 9 4 21 7 26 7 5 0 9 7 9 15 0 22
-28 18 -41 -7z"/>
<path d="M5190 4203 c0 -18 18 -34 41 -37 35 -4 132 -37 144 -48 7 -7 -5 -8
-35 -3 -72 12 -96 9 -127 -13 -16 -11 -42 -22 -58 -24 -28 -3 -30 -6 -27 -38
1 -19 6 -37 11 -40 4 -3 8 -22 8 -43 1 -48 5 -51 54 -48 54 3 79 -6 79 -30 0
-10 7 -19 15 -19 8 0 15 -4 15 -10 0 -5 11 -10 25 -10 16 0 25 -6 25 -15 0
-17 16 -20 25 -5 4 6 11 8 16 4 6 -3 17 2 24 12 13 17 16 17 25 4 8 -13 11
-13 19 -1 7 11 10 10 15 -6 4 -13 19 -23 38 -27 36 -7 86 18 177 92 l58 46 -1
55 c-1 52 -3 56 -31 66 -16 5 -33 14 -37 20 -5 7 -8 7 -8 0 0 -7 -29 -7 -94 0
-108 11 -136 25 -53 25 30 0 57 4 59 10 2 5 22 11 45 13 24 3 48 9 55 14 7 6
25 13 41 17 15 3 27 11 27 16 0 5 -12 7 -27 5 -152 -25 -287 -24 -403 6 -63
15 -140 23 -140 12z m521 -266 c-10 -9 -11 -8 -5 6 3 10 9 15 12 12 3 -3 0
-11 -7 -18z"/>
<path d="M5760 3976 c0 -2 7 -9 15 -16 12 -10 15 -10 15 4 0 9 -7 16 -15 16
-8 0 -15 -2 -15 -4z"/>
<path d="M6570 6312 c0 -12 19 -26 26 -19 2 2 -2 10 -11 17 -9 8 -15 8 -15 2z"/>
<path d="M6620 6260 c0 -5 5 -10 10 -10 6 0 10 5 10 10 0 6 -4 10 -10 10 -5 0
-10 -4 -10 -10z"/>
<path d="M5040 5700 c0 -6 -19 -11 -42 -10 -24 0 -58 -2 -75 -6 -19 -4 -33 -2
-33 4 0 6 -16 6 -42 1 -24 -4 -64 -8 -90 -9 -26 0 -49 -4 -52 -9 -3 -5 58 -9
137 -10 207 -3 312 -20 478 -81 57 -20 87 -38 110 -64 29 -34 35 -36 93 -37
33 0 85 -4 114 -8 51 -7 56 -6 95 25 31 25 59 36 112 46 92 16 303 16 388 -1
37 -7 70 -11 73 -8 8 7 -96 53 -140 61 -21 4 -52 17 -67 28 -26 19 -40 21
-136 19 -168 -5 -197 -8 -201 -20 -2 -6 -16 -11 -32 -11 -15 0 -34 -7 -41 -17
-24 -28 -93 -54 -130 -47 -70 11 -79 15 -107 42 -54 50 -72 62 -97 62 -14 0
-25 4 -25 9 0 5 -13 11 -30 13 -16 3 -30 1 -30 -4 0 -4 -9 -4 -20 2 -11 5 -30
15 -41 21 -35 18 -71 21 -101 8 -22 -9 -32 -9 -41 0 -14 14 -27 14 -27 1z"/>
<path d="M4727 5600 c-112 -19 -149 -69 -155 -207 -3 -51 -1 -113 3 -139 6
-41 8 -44 20 -28 14 20 124 32 172 18 24 -6 15 -9 -51 -20 -113 -19 -120 -34
-16 -35 47 -1 110 -4 140 -8 48 -6 40 -8 -62 -12 -74 -2 -122 -9 -130 -17 -12
-12 -10 -12 217 -14 41 0 48 -2 23 -5 -21 -2 -38 -8 -38 -12 0 -4 26 -13 58
-19 49 -11 68 -11 132 4 41 9 102 22 135 29 93 19 103 24 125 69 12 22 27 46
34 51 69 57 76 176 14 235 -49 47 -149 85 -278 106 -91 15 -265 17 -343 4z
m114 -100 c28 -22 26 -23 -18 -11 -25 7 -31 6 -27 -4 8 -19 -30 -28 -79 -19
l-42 7 65 22 c36 13 68 23 71 24 4 0 17 -8 30 -19z m-175 -105 c-11 -8 -22
-12 -25 -9 -6 6 19 24 34 24 6 -1 1 -7 -9 -15z m268 -4 c30 -1 14 -10 -27 -15
-21 -2 -35 -1 -32 4 3 5 -1 10 -7 13 -7 3 1 3 17 2 17 -2 39 -4 49 -4z m-300
-30 c7 -11 -22 -23 -35 -15 -5 3 -7 10 -4 15 8 12 32 12 39 0z m441 -51 c3 -5
1 -10 -4 -10 -6 0 -11 5 -11 10 0 6 2 10 4 10 3 0 8 -4 11 -10z"/>
<path d="M5351 5517 c69 -66 91 -99 84 -126 l-7 -26 21 27 c27 34 26 52 -3 66
-14 6 -33 23 -42 37 -15 23 -61 55 -80 55 -5 0 8 -15 27 -33z"/>
<path d="M5807 5509 c-21 -5 -48 -18 -60 -30 -12 -12 -32 -28 -44 -36 -13 -9
-23 -22 -23 -29 0 -21 9 -17 36 15 14 17 49 42 79 57 30 14 55 28 55 30 0 2
-1 4 -2 3 -2 -1 -20 -5 -41 -10z"/>
<path d="M5900 5497 c-67 -16 -122 -42 -147 -69 -37 -41 -27 -264 15 -343 16
-30 16 -30 20 -6 2 13 7 20 10 15 11 -16 103 -60 152 -72 65 -17 158 -22 163
-9 2 6 25 10 55 8 29 -1 52 0 52 3 0 10 -59 36 -80 36 -11 0 -20 5 -20 11 0
12 66 8 120 -7 22 -7 23 -5 12 8 -7 9 -27 22 -45 29 -42 16 -42 16 -28 33 10
12 20 10 68 -16 52 -28 55 -28 50 -9 -4 16 0 21 15 21 17 0 19 6 16 66 -2 45
-8 71 -20 84 -20 21 -24 35 -8 25 6 -4 10 8 10 28 0 30 -3 34 -24 32 -18 -2
-23 1 -19 11 3 8 16 14 28 14 16 0 26 8 33 28 9 22 11 13 11 -52 1 -44 3 -77
6 -74 3 3 12 37 19 77 16 84 22 78 -104 110 -107 27 -283 36 -360 18z m330
-107 c0 -5 -4 -10 -10 -10 -5 0 -10 5 -10 10 0 6 5 10 10 10 6 0 10 -4 10 -10z
m60 -60 c0 -5 -4 -10 -10 -10 -5 0 -10 5 -10 10 0 6 5 10 10 10 6 0 10 -4 10
-10z m-373 -96 c-3 -3 -12 -4 -19 -1 -8 3 -5 6 6 6 11 1 17 -2 13 -5z"/>
<path d="M4457 5459 c-3 -11 -10 -18 -16 -15 -5 4 -12 2 -16 -4 -3 -5 1 -10 9
-10 9 0 16 -4 16 -10 0 -5 -4 -10 -9 -10 -5 0 -7 -9 -4 -19 4 -16 -21 -42 -53
-55 -1 -1 -5 -11 -8 -23 -6 -20 -4 -23 19 -23 23 0 26 -4 23 -27 -3 -27 -1
-28 35 -25 22 2 37 -1 37 -7 0 -6 5 -11 11 -11 12 0 5 147 -10 219 -8 40 -26
51 -34 20z"/>
<path d="M5506 5441 c-8 -13 18 -21 70 -21 54 0 59 15 7 18 -21 2 -45 5 -55 8
-9 3 -19 1 -22 -5z"/>
<path d="M5338 5218 c-14 -29 -29 -66 -32 -83 -3 -18 9 -1 30 43 40 84 42 120
2 40z"/>
<path d="M4581 5193 c0 -5 4 -17 9 -28 8 -18 9 -17 9 8 1 15 -3 27 -9 27 -5 0
-10 -3 -9 -7z"/>
<path d="M6393 4805 c-3 -9 -3 -18 -1 -21 3 -3 8 4 11 16 6 23 -1 27 -10 5z"/>
<path d="M5690 4730 c-13 -8 -12 -10 3 -10 9 0 17 5 17 10 0 12 -1 12 -20 0z"/>
<path d="M3896 4671 c-7 -11 3 -41 14 -41 14 0 21 17 14 34 -7 18 -20 21 -28
7z"/>
<path d="M3959 4612 c-12 -9 -17 -18 -12 -23 13 -13 73 1 73 17 0 8 6 11 15 8
8 -4 15 -2 15 4 0 15 -68 10 -91 -6z"/>
<path d="M6363 4563 c-14 -45 0 -69 18 -30 8 18 9 34 3 47 -8 18 -10 16 -21
-17z"/>
<path d="M4193 3535 c0 -38 2 -53 4 -32 2 20 2 52 0 70 -2 17 -4 1 -4 -38z"/>
<path d="M4311 3354 c0 -11 3 -14 6 -6 3 7 2 16 -1 19 -3 4 -6 -2 -5 -13z"/>
<path d="M4311 3234 c0 -11 3 -14 6 -6 3 7 2 16 -1 19 -3 4 -6 -2 -5 -13z"/>
<path d="M4049 3193 c-18 -4 -34 -43 -19 -43 5 0 21 11 36 25 25 24 21 28 -17
18z"/>
<path d="M3885 3144 c-55 -19 -106 -42 -112 -51 -17 -22 -15 -138 2 -183 l13
-35 1 52 c1 46 6 58 35 91 19 20 68 57 110 82 49 29 76 51 76 62 0 24 -8 22
-125 -18z"/>
<path d="M4090 3155 c-13 -14 -19 -25 -13 -25 12 0 48 38 41 45 -2 3 -15 -6
-28 -20z"/>
<path d="M4060 3084 c0 -8 5 -12 10 -9 6 3 10 10 10 16 0 5 -4 9 -10 9 -5 0
-10 -7 -10 -16z"/>
<path d="M4060 3030 c0 -5 5 -10 10 -10 6 0 10 5 10 10 0 6 -4 10 -10 10 -5 0
-10 -4 -10 -10z"/>
<path d="M4052 2968 c-1 -23 2 -28 8 -18 12 19 13 50 2 50 -5 0 -9 -14 -10
-32z"/>
<path d="M4085 2970 c3 -5 8 -10 11 -10 2 0 4 5 4 10 0 6 -5 10 -11 10 -5 0
-7 -4 -4 -10z"/>
<path d="M3560 2959 c0 -5 5 -7 10 -4 6 3 10 8 10 11 0 2 -4 4 -10 4 -5 0 -10
-5 -10 -11z"/>
<path d="M4081 2937 c-12 -15 -3 -87 10 -87 5 0 9 -8 9 -17 1 -17 1 -17 14 0
7 9 18 17 24 17 6 0 0 12 -14 27 -15 16 -22 33 -19 44 7 22 -9 33 -24 16z"/>
<path d="M4155 2720 c5 -8 19 -30 32 -49 21 -31 23 -32 22 -10 0 15 -13 34
-32 49 -17 14 -27 18 -22 10z"/>
<path d="M5570 2255 c-11 -13 -10 -14 4 -9 9 3 16 10 16 15 0 13 -6 11 -20 -6z"/>
<path d="M5530 2220 c-9 -6 -10 -10 -3 -10 6 0 15 5 18 10 8 12 4 12 -15 0z"/>
<path d="M5318 2023 c7 -3 16 -2 19 1 4 3 -2 6 -13 5 -11 0 -14 -3 -6 -6z"/>
<path d="M10098 1883 c7 -3 16 -2 19 1 4 3 -2 6 -13 5 -11 0 -14 -3 -6 -6z"/>
<path d="M8198 1723 c-8 -10 -20 -33 -26 -50 -10 -30 -9 -33 9 -33 10 0 19 5
19 10 0 6 5 10 10 10 6 0 10 -4 10 -10 0 -12 -48 -60 -60 -60 -6 0 -10 -4 -10
-9 0 -8 -61 -34 -82 -36 -15 -1 -22 -19 -35 -93 -25 -135 -32 -203 -42 -377
-13 -215 -21 -285 -34 -285 -6 0 -7 21 -3 58 4 31 9 131 12 222 2 91 7 175 9
188 3 12 -1 35 -10 51 -15 29 -12 61 6 61 5 0 9 19 8 43 0 23 2 56 6 73 5 25
2 36 -15 52 -12 11 -19 25 -15 32 3 6 8 25 11 43 l4 32 -25 -30 c-13 -17 -24
-34 -25 -38 0 -5 -4 -6 -9 -2 -11 6 -26 -33 -16 -43 3 -4 10 0 15 8 8 13 10
13 10 -1 0 -27 -26 -30 -38 -5 -5 12 -9 62 -7 111 l3 89 -22 -39 c-20 -39 -21
-54 -23 -450 -2 -226 -7 -446 -12 -490 -15 -126 -31 -185 -48 -185 -10 0 -13
5 -8 18 14 35 36 229 33 282 -4 51 -21 129 -38 175 -4 11 -8 30 -8 43 -1 42
-35 95 -74 115 -21 10 -42 16 -48 12 -7 -4 -9 -38 -4 -103 5 -74 2 -114 -10
-167 -9 -38 -19 -79 -21 -90 -3 -11 -10 -97 -15 -190 -10 -171 -23 -239 -69
-353 l-21 -53 59 -59 c45 -45 70 -62 105 -71 33 -8 62 -26 94 -57 77 -74 67
-72 482 -72 314 0 370 2 370 14 0 8 10 16 22 18 12 2 23 9 26 16 2 7 0 12 -5
10 -15 -4 -58 15 -69 30 -8 11 -13 12 -18 4 -4 -7 -26 -11 -49 -11 -33 2 -36
3 -12 6 17 2 44 11 62 19 17 8 38 11 47 8 9 -3 16 -1 16 4 0 6 -10 13 -22 15
l-23 4 22 8 c12 4 19 13 17 20 -8 21 -35 27 -53 11 -9 -7 -26 -17 -38 -20 -18
-6 -22 -4 -17 8 3 9 12 16 19 16 8 0 22 10 32 23 10 12 29 27 43 34 l25 12
-32 0 c-17 1 -33 6 -35 13 -5 14 -58 3 -58 -13 0 -5 10 -14 23 -18 19 -8 20
-10 5 -16 -9 -4 -25 -2 -34 3 -12 7 -30 5 -57 -4 -52 -18 -53 -18 -26 11 13
13 29 25 36 25 10 0 48 29 122 93 8 6 26 20 40 29 28 19 23 25 -7 8 -9 -5 -41
-19 -69 -31 -29 -12 -53 -25 -53 -29 0 -18 -34 -19 -55 -1 l-24 18 29 28 c17
16 32 36 35 44 5 15 46 45 90 64 12 6 15 11 8 14 -13 5 -74 -24 -84 -39 -4 -6
-15 -5 -29 2 -18 10 -20 14 -9 22 11 7 11 11 1 15 -7 2 -19 11 -27 20 -8 8
-15 10 -15 4 0 -7 -19 -10 -47 -10 -30 1 -38 4 -20 6 15 2 25 8 22 13 -3 5 5
12 19 16 20 5 23 10 19 36 -3 22 2 40 17 60 l22 30 -23 -7 c-58 -17 -89 -30
-89 -37 0 -4 -8 -8 -17 -8 -17 1 -17 1 0 14 9 7 17 19 17 25 0 7 11 22 25 35
28 26 33 56 10 56 -17 0 -20 16 -5 25 18 11 10 33 -15 39 -14 4 -25 13 -25 21
0 9 6 12 15 9 11 -5 15 1 15 19 0 22 -4 25 -22 21 -72 -17 -97 -1 -62 37 16
18 33 139 20 139 -10 0 -36 -27 -36 -37 0 -11 -41 -46 -47 -40 -6 6 35 143 53
180 8 15 10 27 5 27 -15 0 -21 41 -6 46 7 3 23 25 34 50 24 50 25 54 11 54 -5
0 -10 -7 -10 -16 0 -8 -5 -12 -10 -9 -6 4 -8 15 -5 26 7 20 -9 27 -20 9 -3 -5
-13 -10 -21 -10 -8 0 -14 5 -14 10 0 6 7 10 15 10 9 0 15 9 15 25 0 18 5 25
19 25 17 0 20 6 17 43 -3 52 -17 79 -53 103 l-28 18 30 6 c28 5 30 9 32 50 1
25 -4 51 -10 59 -6 7 -11 23 -12 34 0 27 -18 32 -37 10z m-58 -229 c-17 -19
-5 -30 15 -14 13 11 19 11 31 -2 13 -13 10 -19 -30 -51 -24 -21 -47 -37 -50
-37 -3 0 -10 9 -16 21 -9 15 -8 24 2 37 11 14 11 15 -5 9 -15 -5 -16 -4 -7 12
14 28 64 65 68 51 2 -6 -2 -17 -8 -26z m60 -184 c0 -5 -9 -10 -20 -10 -22 0
-26 -10 -9 -27 8 -8 4 -15 -12 -27 -51 -35 -71 -11 -32 39 26 33 73 49 73 25z
m20 -129 c0 -12 -20 -25 -27 -18 -7 7 6 27 18 27 5 0 9 -4 9 -9z m-39 -252
c-12 -12 -24 -19 -27 -16 -7 6 25 37 39 37 6 0 1 -9 -12 -21z m139 -144 c0 -9
-6 -12 -15 -9 -8 4 -15 10 -15 15 0 5 7 9 15 9 8 0 15 -7 15 -15z m-363 -42
c-3 -10 -5 -4 -5 12 0 17 2 24 5 18 2 -7 2 -21 0 -30z m413 -556 c0 -11 -90
-51 -98 -43 -3 4 78 53 91 55 4 1 7 -5 7 -12z"/>
<path d="M9753 1724 c-7 -7 -9 -15 -4 -19 11 -6 41 4 41 15 0 15 -25 18 -37 4z"/>
<path d="M9165 1700 c-3 -5 -1 -10 4 -10 6 0 11 5 11 10 0 6 -2 10 -4 10 -3 0
-8 -4 -11 -10z"/>
<path d="M9662 1646 c1 -10 8 -17 13 -17 15 1 12 24 -3 29 -9 3 -13 -2 -10
-12z"/>
<path d="M9620 1598 c0 -6 -8 -20 -17 -31 -18 -19 -17 -19 5 -6 19 12 32 49
17 49 -3 0 -5 -5 -5 -12z"/>
<path d="M9464 1575 c-24 -18 -7 -19 26 0 16 9 19 14 9 15 -8 0 -24 -7 -35
-15z"/>
<path d="M10230 1580 c0 -5 5 -10 11 -10 5 0 7 5 4 10 -3 6 -8 10 -11 10 -2 0
-4 -4 -4 -10z"/>
<path d="M10035 1570 c-3 -5 -1 -10 4 -10 6 0 11 5 11 10 0 6 -2 10 -4 10 -3
0 -8 -4 -11 -10z"/>
<path d="M9270 1560 c0 -5 7 -7 15 -4 8 4 15 8 15 10 0 2 -7 4 -15 4 -8 0 -15
-4 -15 -10z"/>
<path d="M2180 1470 c0 -5 5 -10 11 -10 5 0 7 5 4 10 -3 6 -8 10 -11 10 -2 0
-4 -4 -4 -10z"/>
<path d="M10387 1383 c-3 -3 -3 -11 0 -19 4 -11 -6 -14 -43 -15 -45 -1 -47 -1
-21 -11 28 -10 93 -4 100 10 5 9 -30 42 -36 35z"/>
<path d="M9608 1363 c7 -3 16 -2 19 1 4 3 -2 6 -13 5 -11 0 -14 -3 -6 -6z"/>
<path d="M9660 1360 c0 -5 5 -10 10 -10 6 0 10 5 10 10 0 6 -4 10 -10 10 -5 0
-10 -4 -10 -10z"/>
<path d="M9765 1320 c3 -5 8 -10 11 -10 2 0 4 5 4 10 0 6 -5 10 -11 10 -5 0
-7 -4 -4 -10z"/>
<path d="M9800 1320 c0 -5 5 -10 10 -10 6 0 10 5 10 10 0 6 -4 10 -10 10 -5 0
-10 -4 -10 -10z"/>
<path d="M10025 1270 c3 -5 8 -10 11 -10 2 0 4 5 4 10 0 6 -5 10 -11 10 -5 0
-7 -4 -4 -10z"/>
<path d="M2468 1265 c-7 -7 17 -114 36 -159 9 -22 15 -45 12 -52 -3 -7 2 -15
10 -18 16 -6 19 -26 4 -26 -5 0 -21 12 -35 27 -21 23 -25 25 -25 10 0 -10 5
-27 11 -38 6 -11 16 -57 24 -102 7 -45 20 -116 28 -157 28 -138 28 -150 6
-150 -17 0 -19 -5 -13 -42 5 -40 4 -42 -10 -24 -9 11 -16 32 -16 48 0 15 -4
28 -10 28 -5 0 -10 7 -10 15 0 8 9 15 20 15 11 0 20 4 20 9 0 4 -11 6 -23 4
-24 -5 -29 2 -51 71 -4 12 -13 17 -26 13 -22 -6 -27 12 -9 30 6 6 8 17 3 24
-4 7 -8 30 -8 51 0 27 -4 37 -13 34 -7 -3 -15 -1 -18 4 -4 6 -2 10 4 10 17 0
5 33 -13 36 -29 4 -32 15 -9 31 23 15 21 43 -3 43 -17 0 -47 57 -40 75 2 7 -2
16 -9 19 -10 4 -14 17 -11 46 5 44 -9 53 -37 22 -19 -21 -17 -55 6 -101 19
-38 17 -47 -9 -37 -9 4 -14 9 -11 13 8 7 -23 32 -40 33 -24 0 -13 -36 22 -74
19 -21 35 -46 35 -55 0 -9 5 -22 12 -29 19 -19 -20 -27 -41 -8 -21 20 -51 21
-51 2 0 -7 8 -24 18 -37 17 -22 34 -56 30 -62 -1 -1 10 -15 25 -31 15 -16 27
-34 27 -40 0 -6 12 -28 26 -49 14 -21 23 -43 20 -50 -3 -9 -5 -9 -5 1 -1 6 -7
12 -14 12 -7 0 -41 27 -75 60 -35 33 -70 60 -78 60 -7 0 -14 7 -14 15 0 8 -6
15 -12 15 -9 0 -8 4 2 10 11 8 8 9 -12 4 -34 -7 -36 2 -6 26 l22 17 -22 7
c-12 4 -31 2 -43 -5 -18 -9 -25 -9 -34 5 -7 9 -17 16 -24 16 -15 0 -14 20 2
21 6 0 -2 5 -19 10 -28 8 -30 11 -29 54 2 51 -1 56 -14 22 -8 -20 -15 -23 -40
-19 -26 3 -30 1 -25 -12 3 -9 10 -16 15 -16 5 0 12 -8 16 -17 3 -10 19 -32 35
-49 18 -20 26 -37 22 -47 -3 -9 -10 -15 -14 -12 -15 10 -20 -13 -5 -25 11 -9
12 -17 3 -36 -9 -18 -8 -28 0 -36 16 -16 15 -28 -2 -28 -24 0 -30 -22 -11 -37
14 -9 15 -13 4 -13 -11 -1 -11 -3 2 -13 9 -7 20 -23 24 -37 4 -14 13 -28 19
-32 8 -6 7 -11 -3 -17 -7 -5 -10 -14 -6 -20 5 -8 -1 -10 -19 -5 -16 4 -26 2
-26 -5 0 -6 9 -11 19 -11 11 0 23 -9 26 -20 3 -11 15 -25 26 -30 23 -13 24
-26 4 -46 -14 -14 -19 -11 -16 9 1 4 -7 4 -17 -2 -11 -6 -24 -6 -35 1 -10 5
-28 8 -40 6 -20 -3 -19 -5 11 -21 17 -10 32 -24 32 -33 0 -8 7 -17 15 -20 8
-4 12 -10 9 -15 -3 -5 0 -9 5 -9 14 0 40 -61 33 -77 -2 -7 -13 -13 -24 -13
-14 0 -18 5 -14 15 3 9 -6 23 -25 37 -16 12 -27 28 -25 35 3 7 -1 10 -10 6
-16 -6 -19 -23 -4 -23 6 0 8 -11 4 -25 -5 -19 -2 -25 10 -25 9 0 19 -6 22 -14
3 -8 25 -23 48 -34 60 -29 73 -47 52 -71 -12 -13 -14 -21 -6 -26 6 -4 8 -14 5
-24 -3 -11 4 -26 20 -41 13 -12 22 -27 19 -31 -3 -5 137 -9 310 -9 190 0 317
4 321 10 3 5 8 76 11 157 3 81 6 150 7 153 0 3 -3 52 -7 110 -12 170 -34 323
-50 355 -9 17 -16 43 -16 58 0 15 -6 38 -14 50 -7 12 -14 38 -14 57 -1 19 -7
39 -15 45 -19 14 -45 76 -39 93 2 7 -3 21 -11 30 -14 15 -24 66 -26 130 -1 27
-21 30 -21 2 0 -13 -7 -20 -19 -20 -14 0 -18 5 -14 20 5 18 -6 27 -19 15z
m-178 -415 c0 -5 -2 -10 -4 -10 -3 0 -8 5 -11 10 -3 6 -1 10 4 10 6 0 11 -4
11 -10z m-275 -170 c-3 -5 -12 -7 -20 -3 -21 7 -19 13 6 13 11 0 18 -4 14 -10z
m140 -58 c-5 -5 -45 22 -45 31 0 4 11 0 24 -10 13 -10 23 -19 21 -21z m410
-51 c3 -5 1 -12 -5 -16 -5 -3 -10 1 -10 9 0 18 6 21 15 7z m-23 -133 c3 -27 2
-48 -3 -48 -5 0 -9 23 -9 52 0 62 5 60 12 -4z m-5 -180 c-3 -7 -5 -2 -5 12 0
14 2 19 5 13 2 -7 2 -19 0 -25z"/>
<path d="M9405 1250 c3 -5 8 -10 11 -10 2 0 4 5 4 10 0 6 -5 10 -11 10 -5 0
-7 -4 -4 -10z"/>
<path d="M10320 1230 c0 -5 5 -10 11 -10 5 0 7 5 4 10 -3 6 -8 10 -11 10 -2 0
-4 -4 -4 -10z"/>
<path d="M5120 1219 c0 -4 -10 -5 -22 -2 -20 4 -21 3 -5 -7 9 -6 17 -18 17
-26 0 -20 39 -53 63 -54 9 0 17 -6 17 -12 0 -10 2 -10 8 -1 5 8 13 9 22 3 8
-6 25 -10 38 -10 13 0 22 -6 22 -15 0 -8 7 -15 15 -15 9 0 18 -7 21 -15 4 -8
10 -15 16 -15 5 0 6 5 3 10 -3 6 0 10 9 10 8 0 16 -6 19 -12 2 -8 8 -9 13 -4
5 5 4 11 -3 13 -7 3 -13 12 -13 20 0 11 4 13 13 6 18 -15 107 -43 133 -43 12
0 31 -11 42 -25 12 -15 47 -33 91 -48 68 -23 73 -23 103 -8 36 18 48 41 23 41
-9 0 -19 9 -22 20 -3 13 -14 20 -28 20 -13 0 -26 6 -28 13 -4 10 -6 10 -6 0
-1 -7 -6 -13 -12 -13 -5 0 -8 4 -4 9 3 5 -4 12 -15 16 -11 3 -20 12 -20 18 0
7 -18 20 -40 29 -25 10 -44 26 -50 42 -5 14 -14 26 -20 26 -6 0 -18 7 -26 15
-17 17 -54 20 -54 5 0 -5 -18 -8 -42 -5 -24 3 -79 8 -123 11 -44 3 -97 6 -117
8 -21 1 -38 -1 -38 -5z m365 -59 c-3 -5 -15 -10 -26 -10 -10 0 -19 5 -19 10 0
6 12 10 26 10 14 0 23 -4 19 -10z m-168 -56 c-3 -3 -12 -4 -19 -1 -8 3 -5 6 6
6 11 1 17 -2 13 -5z"/>
<path d="M9825 1190 c-3 -5 -1 -10 4 -10 6 0 11 5 11 10 0 6 -2 10 -4 10 -3 0
-8 -4 -11 -10z"/>
<path d="M7502 1100 c2 -26 -1 -34 -11 -32 -8 2 -17 -2 -21 -8 -11 -17 -1
-313 10 -324 6 -6 10 -23 10 -39 0 -40 21 -121 34 -129 20 -13 26 44 21 197
-7 181 -23 346 -36 360 -6 6 -9 -3 -7 -25z"/>
<path d="M9730 1090 c0 -5 7 -7 15 -4 8 4 15 8 15 10 0 2 -7 4 -15 4 -8 0 -15
-4 -15 -10z"/>
<path d="M9518 1083 c7 -3 16 -2 19 1 4 3 -2 6 -13 5 -11 0 -14 -3 -6 -6z"/>
<path d="M9990 1080 c0 -5 5 -10 11 -10 5 0 7 5 4 10 -3 6 -8 10 -11 10 -2 0
-4 -4 -4 -10z"/>
<path d="M10055 1059 c-11 -17 0 -20 21 -4 17 13 17 14 2 15 -9 0 -20 -5 -23
-11z"/>
<path d="M10225 1050 c3 -5 8 -10 11 -10 2 0 4 5 4 10 0 6 -5 10 -11 10 -5 0
-7 -4 -4 -10z"/>
<path d="M9830 967 c0 -19 16 -31 24 -18 3 5 -1 14 -9 21 -12 10 -15 10 -15
-3z"/>
<path d="M9911 951 c-9 -6 -10 -11 -2 -15 13 -8 31 1 31 15 0 11 -11 11 -29 0z"/>
<path d="M9555 934 c-19 -15 -19 -15 10 -12 17 2 29 7 28 13 -3 16 -17 15 -38
-1z"/>
<path d="M10041 946 c2 -2 15 -9 29 -15 24 -11 24 -11 6 3 -16 13 -49 24 -35
12z"/>
<path d="M10377 943 c-9 -9 -9 -33 1 -33 4 0 13 9 20 20 10 16 10 20 -1 20 -8
0 -17 -3 -20 -7z"/>
<path d="M10340 900 c0 -5 -16 -18 -36 -28 -46 -23 -35 -31 32 -25 51 5 51 6
32 25 -10 10 -16 23 -13 28 4 6 1 10 -4 10 -6 0 -11 -4 -11 -10z"/>
<path d="M1140 881 c-14 -26 -13 -31 6 -31 11 0 14 -5 10 -16 -4 -10 -1 -14 6
-12 18 6 30 61 15 70 -18 12 -25 10 -37 -11z"/>
<path d="M9956 875 c-4 -10 1 -15 14 -15 13 0 18 5 14 15 -4 8 -10 15 -14 15
-4 0 -10 -7 -14 -15z"/>
<path d="M10020 858 c0 -10 -8 -18 -17 -18 -13 0 -14 -3 -5 -12 9 -9 23 -8 59
3 32 10 58 13 78 8 33 -9 85 -3 100 12 9 9 -8 14 -30 9 -5 -1 -36 -2 -68 -1
-32 1 -67 -3 -77 -9 -15 -8 -21 -6 -29 7 -10 17 -10 17 -11 1z"/>
<path d="M9264 845 c15 -6 39 -10 52 -7 42 8 26 19 -28 19 -51 1 -52 0 -24
-12z"/>
<path d="M9498 853 c7 -3 16 -2 19 1 4 3 -2 6 -13 5 -11 0 -14 -3 -6 -6z"/>
<path d="M9746 846 c7 -17 44 -22 44 -6 0 6 -4 10 -9 10 -5 0 -17 3 -25 6 -12
5 -15 2 -10 -10z"/>
<path d="M9820 850 c-20 -12 -11 -18 30 -20 49 -3 56 -2 45 9 -16 14 -59 21
-75 11z"/>
<path d="M9400 840 c0 -5 11 -10 25 -10 14 0 25 5 25 10 0 6 -11 10 -25 10
-14 0 -25 -4 -25 -10z"/>
<path d="M9796 795 c-9 -26 -7 -32 5 -12 6 10 9 21 6 23 -2 3 -7 -2 -11 -11z"/>
<path d="M9890 779 c0 -5 5 -7 10 -4 6 3 10 8 10 11 0 2 -4 4 -10 4 -5 0 -10
-5 -10 -11z"/>
<path d="M10050 780 c0 -5 7 -10 15 -10 8 0 15 5 15 10 0 6 -7 10 -15 10 -8 0
-15 -4 -15 -10z"/>
<path d="M9914 762 c-6 -4 -13 -15 -17 -25 -6 -15 -4 -16 13 -7 11 6 20 17 20
25 0 17 -1 17 -16 7z"/>
<path d="M6745 749 c-4 -6 -13 -8 -20 -5 -18 7 -26 -4 -12 -18 13 -15 57 2 57
22 0 15 -16 16 -25 1z"/>
<path d="M10041 744 c0 -11 3 -14 6 -6 3 7 2 16 -1 19 -3 4 -6 -2 -5 -13z"/>
<path d="M9820 740 c0 -5 9 -10 20 -10 11 0 20 5 20 10 0 6 -9 10 -20 10 -11
0 -20 -4 -20 -10z"/>
<path d="M6679 700 c-3 -27 -8 -35 -24 -35 -11 0 -26 -4 -34 -9 -8 -5 -29 -11
-45 -12 -17 -2 -40 -4 -51 -6 -23 -4 -77 -37 -88 -55 -4 -7 -19 -13 -32 -13
-14 0 -25 -4 -25 -9 0 -5 -9 -13 -20 -16 -11 -3 -20 -12 -20 -18 0 -7 -7 -20
-15 -31 -13 -17 -15 -17 -37 -2 -25 18 -64 21 -73 6 -4 -6 1 -7 11 -3 12 4 15
3 10 -5 -4 -7 -18 -12 -31 -12 -15 0 -23 -5 -20 -12 3 -7 1 -18 -3 -24 -11
-16 -118 -32 -138 -21 -10 6 -24 5 -39 -3 -15 -8 -39 -10 -68 -6 -28 4 -48 3
-52 -4 -3 -5 -15 -10 -26 -10 -10 0 -19 -4 -19 -10 0 -5 -13 -10 -29 -10 -16
0 -31 -5 -33 -11 -6 -18 -67 0 -91 27 -11 13 -25 24 -31 24 -6 0 -4 -4 4 -10
12 -8 12 -10 -3 -16 -21 -8 -47 12 -47 37 0 20 -24 26 -35 10 -3 -6 -58 -8
-130 -5 -79 3 -132 1 -145 -6 -13 -7 -20 -7 -20 0 0 5 18 13 40 16 22 4 40 10
40 15 0 12 -16 11 -65 -2 -66 -17 -66 -17 -56 -36 5 -10 14 -31 20 -47 9 -22
14 -26 25 -17 16 13 66 -2 66 -20 0 -7 10 -9 28 -5 20 5 23 4 12 -4 -12 -7 -7
-10 20 -10 39 0 61 -15 54 -35 -5 -12 36 -25 82 -25 13 0 23 -5 21 -12 -1 -6
13 -15 31 -19 19 -4 39 -12 45 -18 16 -16 77 -14 127 4 31 11 47 12 62 4 13
-7 44 -9 84 -4 58 6 63 9 73 36 9 27 31 41 31 19 0 -5 -4 -10 -10 -10 -5 0
-10 -7 -10 -15 0 -18 12 -19 27 -4 7 7 17 8 29 1 11 -5 28 -6 39 -1 19 7 19 8
1 8 -37 2 -6 13 44 17 72 5 130 22 130 39 0 7 17 19 38 26 20 7 31 14 25 16
-19 7 -16 23 4 23 13 0 14 3 6 11 -19 19 -3 39 31 38 17 0 26 -3 19 -6 -10 -3
-10 -7 0 -17 9 -10 18 -11 34 -3 12 5 20 14 17 18 -2 5 4 14 16 21 25 16 29
78 5 78 -8 0 -15 9 -15 20 0 22 25 28 33 8 5 -12 7 -7 11 35 1 11 57 12 151 4
10 -1 20 4 23 11 3 9 -3 12 -15 10 -26 -4 -27 8 -3 32 16 16 20 17 20 5 0 -8
4 -15 10 -15 14 0 22 62 12 90 -10 24 -10 24 -13 -10z m-359 -280 c0 -5 -5
-10 -11 -10 -5 0 -7 5 -4 10 3 6 8 10 11 10 2 0 4 -4 4 -10z m-820 -40 c0 -5
-7 -10 -16 -10 -8 0 -12 5 -9 10 3 6 10 10 16 10 5 0 9 -4 9 -10z m430 -40 c0
-5 -7 -10 -15 -10 -8 0 -15 5 -15 10 0 6 7 10 15 10 8 0 15 -4 15 -10z m-210
-120 c-20 -13 -63 -13 -55 0 3 6 21 10 38 10 24 0 28 -3 17 -10z"/>
<path d="M10157 713 c6 -15 69 -18 77 -4 3 5 -14 11 -38 12 -32 3 -42 1 -39
-8z"/>
<path d="M9958 713 c7 -3 16 -2 19 1 4 3 -2 6 -13 5 -11 0 -14 -3 -6 -6z"/>
<path d="M9396 702 c-2 -4 -1 -14 5 -22 7 -12 9 -10 9 8 0 23 -5 28 -14 14z"/>
<path d="M9501 678 c-1 -11 6 -16 19 -15 11 1 20 5 20 10 0 5 -6 7 -14 4 -8
-3 -17 -1 -20 6 -2 7 -5 5 -5 -5z"/>
<path d="M10226 663 c-3 -4 -24 -6 -46 -5 -22 1 -40 -2 -40 -7 0 -12 -93 -20
-101 -9 -3 5 -18 3 -33 -3 -46 -21 -7 -29 90 -19 49 5 108 11 132 12 41 3 42
4 23 20 -10 9 -22 14 -25 11z"/>
<path d="M9480 654 c0 -7 -11 -15 -25 -18 -38 -10 -20 -26 28 -26 23 0 37 4
31 8 -6 4 -16 16 -22 27 -6 11 -12 15 -12 9z"/>
<path d="M9280 641 c0 -5 5 -13 10 -16 6 -3 10 -2 10 4 0 5 -4 13 -10 16 -5 3
-10 2 -10 -4z"/>
<path d="M9898 628 c-25 -25 -23 -28 20 -21 45 7 44 6 36 26 -7 20 -34 18 -56
-5z"/>
<path d="M10305 640 c-17 -7 -15 -9 12 -9 17 -1 35 4 38 9 7 12 -22 12 -50 0z"/>
<path d="M9385 630 c-3 -5 -2 -10 4 -10 5 0 13 5 16 10 3 6 2 10 -4 10 -5 0
-13 -4 -16 -10z"/>
<path d="M8830 620 c0 -5 11 -10 25 -10 14 0 25 5 25 10 0 6 -11 10 -25 10
-14 0 -25 -4 -25 -10z"/>
<path d="M9610 620 c0 -7 -7 -10 -15 -6 -11 4 -15 -2 -15 -22 0 -16 -5 -33
-12 -40 -12 -12 -12 -12 35 -16 6 -1 12 4 12 11 0 7 8 18 19 26 22 16 18 50
-7 55 -9 2 -17 -2 -17 -8z"/>
<path d="M8681 605 c19 -20 89 -32 89 -16 0 6 -12 11 -26 11 -14 0 -23 4 -19
10 4 6 -7 10 -27 10 -29 0 -31 -2 -17 -15z"/>
<path d="M886 602 c-3 -5 1 -15 9 -22 16 -14 20 -3 6 19 -5 8 -11 9 -15 3z"/>
<path d="M493 593 c4 -3 2 -12 -5 -20 -15 -19 -12 -20 60 -25 45 -3 62 -1 62
8 0 7 6 15 13 17 6 3 -2 6 -20 6 -17 1 -33 -4 -35 -10 -2 -6 -14 -2 -30 10
-23 19 -61 31 -45 14z"/>
<path d="M1718 555 c13 -9 26 -14 29 -11 8 8 3 12 -27 21 l-25 7 23 -17z"/>
<path d="M6556 545 c-11 -30 -6 -40 11 -22 12 12 14 20 6 28 -7 7 -12 6 -17
-6z"/>
<path d="M9820 550 c0 -6 -11 -8 -27 -5 -26 6 -26 5 -10 -8 9 -8 17 -22 17
-31 0 -20 24 -21 44 0 21 21 20 31 -4 44 -14 7 -20 7 -20 0z"/>
<path d="M9876 552 c-3 -6 3 -12 13 -15 13 -3 18 -11 15 -23 -2 -11 0 -25 5
-33 8 -12 12 -12 25 2 18 18 21 28 6 25 -6 -2 -16 8 -23 21 -13 27 -32 37 -41
23z"/>
<path d="M270 540 c0 -5 12 -10 26 -10 14 0 23 4 19 10 -3 6 -15 10 -26 10
-10 0 -19 -4 -19 -10z"/>
<path d="M10202 528 c5 -15 28 -18 29 -3 0 6 -7 12 -17 13 -10 3 -15 -1 -12
-10z"/>
<path d="M180 516 c0 -9 5 -16 10 -16 6 0 10 4 10 9 0 6 -4 13 -10 16 -5 3
-10 -1 -10 -9z"/>
<path d="M9520 520 c0 -5 -7 -10 -15 -10 -8 0 -15 -4 -15 -9 0 -14 14 -21 25
-13 11 8 19 42 10 42 -3 0 -5 -4 -5 -10z"/>
<path d="M6512 490 c2 -31 13 -40 21 -17 5 17 -3 47 -14 47 -5 0 -8 -13 -7
-30z"/>
<path d="M10020 516 c0 -12 63 -47 75 -42 22 8 7 38 -16 31 -11 -4 -19 -2 -19
4 0 6 -9 11 -20 11 -11 0 -20 -2 -20 -4z"/>
<path d="M9430 500 c0 -5 7 -10 16 -10 8 0 12 5 9 10 -3 6 -10 10 -16 10 -5 0
-9 -4 -9 -10z"/>
<path d="M73 492 c5 -6 -8 -13 -33 -17 -36 -6 -40 -10 -40 -36 0 -16 5 -29 10
-29 6 0 10 9 10 19 0 26 17 36 35 21 14 -12 78 -5 105 12 10 6 1 7 -27 4 -34
-5 -43 -3 -43 8 0 8 -5 18 -12 22 -6 4 -8 3 -5 -4z"/>
<path d="M8910 475 c0 -10 10 -15 30 -15 20 0 30 5 30 15 0 10 -10 15 -30 15
-20 0 -30 -5 -30 -15z"/>
<path d="M9664 477 c3 -10 6 -23 6 -28 0 -6 31 -9 73 -7 44 2 70 7 67 13 -3 6
-14 10 -25 11 -11 0 -26 4 -33 8 -7 4 -23 1 -37 -8 -23 -15 -25 -14 -41 7 -12
16 -15 17 -10 4z"/>
<path d="M10186 464 c-9 -24 0 -32 40 -32 37 0 39 10 2 15 -30 5 -35 12 -18
23 13 8 13 10 -1 10 -9 0 -20 -7 -23 -16z"/>
<path d="M5465 460 c3 -5 10 -10 16 -10 5 0 9 5 9 10 0 6 -7 10 -16 10 -8 0
-12 -4 -9 -10z"/>
<path d="M9390 460 c-8 -5 -10 -10 -5 -10 6 0 17 5 25 10 8 5 11 10 5 10 -5 0
-17 -5 -25 -10z"/>
<path d="M9945 461 c-6 -5 -23 -11 -40 -13 l-30 -4 30 -14 c39 -18 38 -17 30
-30 -5 -8 -10 -8 -20 0 -27 22 -129 19 -126 -4 1 -3 1 -14 1 -23 0 -15 -2 -14
-14 3 -13 16 -18 17 -35 7 -32 -20 -47 -16 -27 6 10 11 15 25 11 32 -6 8 -13
5 -26 -12 -10 -13 -19 -18 -19 -11 0 7 -4 10 -10 7 -5 -3 -10 -15 -10 -26 0
-10 -4 -19 -10 -19 -5 0 -10 -7 -10 -15 0 -8 5 -15 11 -15 14 0 32 -20 45 -49
10 -24 64 -41 64 -20 0 12 50 33 73 30 15 -2 17 2 13 17 -4 11 -2 23 5 27 14
10 60 -15 52 -28 -4 -6 4 -7 19 -4 15 4 41 0 62 -8 44 -19 87 -20 81 -2 -3 7
8 18 25 26 29 12 30 14 16 36 -11 17 -12 25 -3 34 8 8 7 11 -5 11 -9 0 -20 -4
-23 -10 -10 -17 -35 -12 -28 6 3 8 12 13 19 10 18 -7 25 6 14 24 -8 12 -14 11
-39 -8 -37 -27 -41 -27 -34 -2 3 11 9 20 14 20 5 0 9 7 9 15 0 8 -4 15 -10 15
-5 0 -9 -6 -7 -12 3 -17 -35 -17 -48 0 -7 8 -14 9 -20 3z m-108 -67 c-3 -3
-12 -4 -19 -1 -8 3 -5 6 6 6 11 1 17 -2 13 -5z m33 -24 c0 -5 -4 -10 -10 -10
-5 0 -10 5 -10 10 0 6 5 10 10 10 6 0 10 -4 10 -10z m-50 -19 c0 -7 -12 -13
-47 -21 -4 -1 -9 3 -11 9 -2 5 9 11 25 14 15 2 29 5 31 6 1 0 2 -3 2 -8z m-70
-10 c0 -6 -8 -9 -17 -9 -10 0 -26 -3 -36 -7 -13 -6 -16 -4 -11 9 7 17 64 23
64 7z"/>
<path d="M650 450 c0 -5 5 -10 11 -10 5 0 7 5 4 10 -3 6 -8 10 -11 10 -2 0 -4
-4 -4 -10z"/>
<path d="M5113 441 c-10 -16 -8 -20 13 -31 13 -8 27 -10 31 -7 3 4 1 7 -5 7
-20 0 -13 17 8 23 30 8 24 27 -8 27 -16 0 -32 -8 -39 -19z"/>
<path d="M5650 446 c0 -8 14 -17 30 -21 17 -4 28 -11 25 -16 -7 -11 28 1 36
13 3 4 21 3 39 -2 19 -6 42 -10 50 -10 13 0 13 1 0 10 -12 8 -11 10 7 10 12 0
25 5 28 10 8 13 -36 13 -72 -1 -19 -7 -29 -7 -31 0 -5 14 -49 14 -57 1 -9 -15
-25 -12 -25 5 0 8 -7 15 -15 15 -8 0 -15 -6 -15 -14z"/>
<path d="M260 425 c0 -8 4 -15 9 -15 5 0 13 -9 16 -20 10 -32 42 -25 47 10 6
37 3 40 -39 40 -23 0 -33 -5 -33 -15z"/>
<path d="M416 405 c4 -8 10 -15 14 -15 4 0 13 7 20 15 11 13 8 15 -13 15 -19
0 -25 -4 -21 -15z"/>
<path d="M9485 410 c3 -5 12 -7 20 -3 21 7 19 13 -6 13 -11 0 -18 -4 -14 -10z"/>
<path d="M212 378 c-14 -39 -9 -47 26 -44 33 4 44 42 15 53 -10 4 -20 10 -23
14 -3 5 -11 -6 -18 -23z"/>
<path d="M590 403 c0 -5 5 -15 10 -23 8 -12 10 -11 10 8 0 12 -4 22 -10 22 -5
0 -10 -3 -10 -7z"/>
<path d="M871 394 c0 -11 3 -14 6 -6 3 7 2 16 -1 19 -3 4 -6 -2 -5 -13z"/>
<path d="M9536 375 c2 -20 0 -35 -6 -35 -5 0 -10 7 -10 16 0 9 -7 14 -17 12
-10 -2 -17 -12 -17 -21 2 -14 -3 -16 -20 -11 -11 4 -27 7 -33 7 -7 0 -13 4
-13 9 0 4 -13 8 -30 8 -16 0 -30 -4 -30 -10 0 -5 6 -10 14 -10 10 0 12 -7 8
-22 -5 -20 -4 -21 11 -10 9 8 21 11 27 7 18 -11 11 -33 -12 -38 -13 -3 4 -4
37 -3 46 1 60 4 60 16 0 11 13 16 48 18 46 3 48 4 45 30 -2 16 -12 31 -25 37
-13 5 -23 15 -23 22 0 7 -4 13 -9 13 -5 0 -8 -16 -5 -35z"/>
<path d="M8808 393 c7 -3 16 -2 19 1 4 3 -2 6 -13 5 -11 0 -14 -3 -6 -6z"/>
<path d="M9440 389 c0 -5 5 -7 10 -4 6 3 10 8 10 11 0 2 -4 4 -10 4 -5 0 -10
-5 -10 -11z"/>
<path d="M104 375 c5 -11 8 -27 9 -35 0 -22 17 -40 39 -40 33 0 19 47 -21 73
-33 20 -34 21 -27 2z"/>
<path d="M10120 380 c0 -5 12 -10 26 -10 14 0 23 4 19 10 -3 6 -15 10 -26 10
-10 0 -19 -4 -19 -10z"/>
<path d="M10320 380 c-13 -8 -12 -10 3 -10 9 0 17 5 17 10 0 12 -1 12 -20 0z"/>
<path d="M8773 373 c-13 -2 -23 -9 -23 -14 0 -5 -7 -9 -15 -9 -8 0 -15 -4 -15
-10 0 -5 -7 -7 -15 -4 -9 4 -15 0 -15 -9 0 -12 -12 -17 -47 -19 -53 -3 -64
-18 -28 -35 22 -10 29 -8 53 11 15 13 41 30 57 39 28 15 86 58 75 55 -3 0 -15
-3 -27 -5z"/>
<path d="M10305 351 c-28 -6 -27 -7 19 -14 68 -10 106 -9 106 3 0 6 -8 10 -19
10 -10 0 -31 2 -47 4 -16 2 -42 1 -59 -3z"/>
<path d="M57 323 c-13 -13 -20 -14 -29 -5 -16 16 -28 15 -28 -2 0 -16 52 -28
80 -18 17 6 19 10 8 25 -12 17 -14 17 -31 0z"/>
<path d="M440 330 c0 -5 7 -10 15 -10 8 0 15 5 15 10 0 6 -7 10 -15 10 -8 0
-15 -4 -15 -10z"/>
<path d="M373 311 c-18 -8 -33 -21 -33 -28 0 -7 -4 -13 -9 -13 -5 0 -13 -9
-16 -20 -8 -24 -66 -28 -84 -6 -10 12 -6 16 20 21 l33 7 -27 15 c-23 12 -30
12 -41 0 -8 -7 -16 -22 -19 -33 -4 -17 -5 -17 -6 -1 -1 24 -25 16 -29 -9 -2
-17 6 -22 48 -32 64 -15 162 -16 177 -1 7 7 23 7 54 -1 47 -11 100 -2 107 18
2 7 -4 12 -13 12 -9 0 -13 4 -10 10 3 5 -6 12 -21 16 -17 4 -29 2 -34 -6 -5
-7 -22 -14 -39 -15 -29 -2 -30 -1 -18 19 10 16 11 26 3 41 -10 19 -13 19 -43
6z"/>
<path d="M645 310 c3 -5 8 -10 11 -10 2 0 4 5 4 10 0 6 -5 10 -11 10 -5 0 -7
-4 -4 -10z"/>
<path d="M700 303 c0 -11 -6 -27 -13 -37 -12 -17 -15 -17 -29 -2 -14 14 -19
14 -54 -4 l-39 -19 45 -1 c25 -1 69 -3 98 -5 58 -4 61 2 33 49 -20 36 -41 45
-41 19z"/>
<path d="M9533 283 c9 -2 23 -2 30 0 6 3 -1 5 -18 5 -16 0 -22 -2 -12 -5z"/>
<path d="M1760 271 c0 -5 -17 -8 -37 -6 -21 1 -27 0 -13 -2 14 -3 30 -9 37
-15 7 -5 17 -7 24 -3 6 4 15 1 20 -6 4 -7 11 -11 14 -7 4 3 -2 16 -12 27 -18
22 -33 27 -33 12z"/>
<path d="M9860 266 c0 -17 27 -29 35 -16 4 6 3 15 0 20 -9 15 -35 12 -35 -4z"/>
<path d="M9135 261 c-30 -9 -85 -40 -108 -62 -12 -10 -25 -19 -29 -19 -5 0
-18 -9 -30 -20 -12 -11 -28 -20 -35 -20 -7 0 -13 -4 -13 -9 0 -5 -8 -12 -19
-16 -10 -3 -28 -13 -39 -23 -12 -9 -47 -33 -79 -52 l-57 -35 269 -3 c147 -1
271 0 274 3 3 3 -3 21 -13 39 -9 18 -19 46 -21 61 -1 16 -10 34 -20 41 -10 8
-14 18 -9 26 4 7 4 10 -1 6 -10 -10 -35 17 -36 39 -1 34 -13 49 -34 44z"/>
<path d="M10125 260 c3 -5 10 -10 16 -10 5 0 9 5 9 10 0 6 -7 10 -16 10 -8 0
-12 -4 -9 -10z"/>
<path d="M10255 260 c3 -5 11 -10 16 -10 6 0 7 5 4 10 -3 6 -11 10 -16 10 -6
0 -7 -4 -4 -10z"/>
<path d="M9630 250 c0 -5 9 -10 20 -10 11 0 20 5 20 10 0 6 -9 10 -20 10 -11
0 -20 -4 -20 -10z"/>
<path d="M1703 229 c-5 -5 -8 -21 -5 -35 3 -17 11 -24 28 -24 24 0 32 14 14
25 -5 3 -10 15 -10 26 0 21 -10 25 -27 8z"/>
<path d="M10394 225 c-6 -16 12 -45 27 -45 5 0 9 14 9 30 0 32 -26 43 -36 15z"/>
<path d="M9715 220 c-3 -5 1 -10 9 -10 9 0 16 5 16 10 0 6 -4 10 -9 10 -6 0
-13 -4 -16 -10z"/>
<path d="M10220 220 c-12 -7 -12 -10 2 -15 9 -4 25 -5 35 -3 17 4 16 5 -3 15
-12 7 -26 8 -34 3z"/>
<path d="M8610 200 c0 -5 5 -10 11 -10 5 0 7 5 4 10 -3 6 -8 10 -11 10 -2 0
-4 -4 -4 -10z"/>
<path d="M9603 188 c-47 -29 -42 -42 13 -34 26 3 56 6 66 6 17 0 15 4 -10 25
-35 29 -28 29 -69 3z"/>
<path d="M5870 190 c0 -5 5 -10 10 -10 6 0 10 5 10 10 0 6 -4 10 -10 10 -5 0
-10 -4 -10 -10z"/>
<path d="M5774 183 c10 -11 36 -12 36 -2 0 5 -10 9 -22 9 -12 0 -18 -3 -14 -7z"/>
<path d="M1932 159 c-11 -17 -20 -20 -43 -15 -16 3 -29 1 -29 -4 0 -6 9 -10
19 -10 26 0 66 -34 57 -48 -4 -7 -19 -12 -34 -13 -15 0 -21 -3 -14 -6 6 -2 12
-9 12 -14 0 -5 9 -18 20 -29 16 -16 32 -20 83 -19 34 1 54 3 45 6 -10 2 -18 8
-18 13 0 4 -11 11 -25 14 -23 6 -36 26 -17 26 19 1 32 18 26 35 -7 18 -8 18
-15 -1 -6 -15 -8 -13 -9 11 -2 32 -18 80 -19 56 -1 -12 -4 -11 -13 2 -12 16
-14 16 -26 -4z"/>
<path d="M9345 157 c-34 -29 -42 -99 -12 -105 25 -5 106 20 120 36 13 16 -2
46 -24 48 -8 1 -20 2 -26 3 -7 0 -13 7 -13 15 0 26 -18 27 -45 3z m30 -47 c-5
-8 -11 -8 -17 -2 -6 6 -7 16 -3 22 5 8 11 8 17 2 6 -6 7 -16 3 -22z"/>
<path d="M9493 173 c-7 -3 -13 -18 -13 -34 0 -23 4 -29 23 -29 17 0 19 2 8 9
-12 8 -13 12 -1 26 14 17 3 36 -17 28z"/>
<path d="M9910 163 c0 -14 39 -37 48 -29 3 4 7 15 9 25 2 14 -4 18 -27 17 -17
-1 -30 -6 -30 -13z"/>
<path d="M1673 157 c4 -10 -2 -17 -15 -21 -17 -4 -19 -8 -9 -19 14 -17 4 -47
-15 -47 -23 0 -16 -16 11 -28 32 -15 46 -15 23 -1 -10 5 -18 14 -18 19 0 18
43 10 67 -12 21 -20 21 -22 5 -34 -14 -11 -6 -13 61 -14 l78 0 -28 28 c-15 16
-38 40 -50 55 -13 15 -32 27 -44 27 -12 0 -19 5 -16 13 2 6 12 11 21 11 9 -1
16 2 16 7 0 5 -9 9 -20 9 -29 0 -33 1 -54 12 -15 8 -18 7 -13 -5z"/>
<path d="M10046 161 c-24 -5 -27 -8 -15 -18 9 -7 26 -17 40 -22 24 -10 24 -10
-6 -12 -16 -1 -37 0 -45 1 -13 1 -13 -1 1 -15 10 -10 35 -17 62 -18 27 -1 49
-7 52 -14 6 -18 25 -16 25 2 0 8 -7 15 -15 15 -8 0 -15 9 -15 21 0 16 5 20 28
17 19 -2 27 -8 26 -20 -2 -25 12 -23 19 2 5 20 37 29 37 11 0 -5 14 -16 30
-25 28 -14 30 -13 30 5 0 10 5 19 10 19 15 0 12 -23 -5 -46 -11 -14 -17 -16
-23 -7 -8 13 -72 14 -72 2 0 -4 16 -10 35 -13 20 -4 41 -16 48 -26 10 -16 23
-20 74 -20 l63 0 0 80 0 80 -38 0 c-26 0 -41 -6 -50 -20 -9 -14 -23 -20 -51
-20 -22 0 -42 4 -45 9 -3 4 -18 7 -33 5 -33 -4 -123 16 -123 28 0 9 -1 9 -44
-1z m74 -41 c0 -5 -5 -10 -11 -10 -5 0 -7 5 -4 10 3 6 8 10 11 10 2 0 4 -4 4
-10z"/>
<path d="M9776 103 c-31 -30 -56 -58 -56 -63 0 -4 -7 -10 -15 -14 -37 -14 -11
-26 55 -26 40 0 70 4 70 10 0 6 11 10 25 10 16 0 25 6 25 15 0 8 7 15 16 15
13 0 14 -3 4 -15 -20 -24 -2 -35 60 -35 48 0 63 4 80 22 21 22 26 37 13 39
-46 5 -70 12 -79 24 -6 8 -20 13 -32 12 -16 -1 -18 -4 -11 -14 19 -22 -1 -34
-26 -16 -20 16 -21 20 -9 34 12 13 9 18 -25 36 l-40 21 -55 -55z m38 -29 c4
-12 14 -14 38 -9 32 6 32 5 13 -10 -35 -29 -55 -37 -49 -21 3 8 -3 19 -16 26
-11 6 -18 15 -15 21 9 14 22 11 29 -7z"/>
<path d="M10320 149 c0 -5 5 -7 10 -4 6 3 10 8 10 11 0 2 -4 4 -10 4 -5 0 -10
-5 -10 -11z"/>
<path d="M15 140 c-4 -6 -3 -16 3 -22 13 -13 23 4 13 21 -7 10 -10 10 -16 1z"/>
<path d="M211 132 c-7 -7 -10 -16 -7 -21 8 -12 46 -21 46 -10 0 5 6 9 14 9 12
0 26 20 26 36 0 10 -68 -2 -79 -14z"/>
<path d="M7456 119 c-3 -17 -2 -38 4 -47 8 -15 10 -15 11 3 1 11 3 32 5 48 4
37 -12 34 -20 -4z"/>
<path d="M8685 130 c-3 -5 -1 -10 4 -10 6 0 11 5 11 10 0 6 -2 10 -4 10 -3 0
-8 -4 -11 -10z"/>
<path d="M9668 126 c-13 -10 -15 -15 -6 -24 9 -9 7 -12 -7 -12 -14 0 -16 -3
-7 -8 7 -5 10 -16 6 -25 -10 -28 -44 -19 -57 16 -3 9 -13 17 -21 17 -7 0 -16
9 -19 21 -3 12 -10 18 -16 15 -6 -4 -8 -13 -5 -21 4 -10 -3 -18 -21 -25 -26
-10 -30 -30 -7 -38 7 -2 12 5 12 15 0 12 6 7 16 -14 20 -41 67 -53 112 -29 41
21 51 43 43 88 -5 32 -8 35 -23 24z"/>
<path d="M72 100 c-10 -17 -10 -21 3 -26 23 -9 45 3 45 26 0 26 -31 26 -48 0z"/>
<path d="M8630 100 c-12 -8 -9 -10 13 -10 15 0 27 5 27 10 0 13 -20 13 -40 0z"/>
<path d="M7627 85 c6 -17 25 -15 31 3 2 7 -5 12 -17 12 -14 0 -19 -5 -14 -15z"/>
<path d="M7574 64 c-13 -6 -7 -44 7 -44 5 0 9 4 9 9 0 5 3 16 6 25 6 16 -1 19
-22 10z"/>
<path d="M7688 53 c7 -3 16 -2 19 1 4 3 -2 6 -13 5 -11 0 -14 -3 -6 -6z"/>
<path d="M9440 40 c0 -5 5 -10 10 -10 6 0 10 5 10 10 0 6 -4 10 -10 10 -5 0
-10 -4 -10 -10z"/>
<path d="M10074 39 c-11 -18 12 -31 63 -36 l48 -5 -38 20 c-55 29 -66 32 -73
21z"/>
<path d="M10180 35 c0 -10 10 -15 28 -15 26 1 26 1 8 15 -25 19 -36 19 -36 0z"/>
<path d="M7620 30 c0 -5 7 -10 15 -10 8 0 15 5 15 10 0 6 -7 10 -15 10 -8 0
-15 -4 -15 -10z"/>
<path d="M7420 20 c0 -5 5 -10 10 -10 6 0 10 5 10 10 0 6 -4 10 -10 10 -5 0
-10 -4 -10 -10z"/>
<path d="M8642 18 c3 -7 13 -15 24 -17 16 -3 17 -1 5 13 -16 19 -34 21 -29 4z"/>
<path d="M75 10 c-4 -6 5 -10 20 -10 15 0 24 4 20 10 -8 13 -32 13 -40 0z"/>
<path d="M7470 10 c0 -5 5 -10 11 -10 5 0 7 5 4 10 -3 6 -8 10 -11 10 -2 0 -4
-4 -4 -10z"/>
<path d="M7740 10 c0 -5 7 -10 16 -10 8 0 12 5 9 10 -3 6 -10 10 -16 10 -5 0
-9 -4 -9 -10z"/>
<path d="M458 3 c6 -2 18 -2 25 0 6 3 1 5 -13 5 -14 0 -19 -2 -12 -5z"/>
</g>
</svg>
